<?xml version="1.0" encoding="UTF-8" standalone="no"?>
<svg viewBox="0 0 1784 340"
     preserveAspectRatio="xMidYMid meet"
     version="1.1"
     baseProfile="full"
     xmlns="http://www.w3.org/2000/svg"
     xmlns:xlink="http://www.w3.org/1999/xlink"
     xmlns:ev="http://www.w3.org/2001/xml-events"
     xml:space="preserve">
<title>top_imp</title>
<desc>Nlview schematic (SVG)</desc>
<clipPath id="clippingbbox">
<rect x="0" y="0" width="1784" height="340" />
</clipPath>
<g stroke="#102235"
   stroke-width="1"
   stroke-linecap="butt"
   stroke-linejoin="miter"
   stroke-miterlimit="4"
   stroke-dasharray="none"
   stroke-dashoffset="0"
   fill="none"
   font-family="Helvetica"
   font-style="normal"
   font-size="12"
   writing-mode="lr-tb"
   cursor="crosshair"
   clip-path="url(#clippingbbox)">
<path d="M0 0h1784v341h-1784z" stroke="none" fill="white" />
<path d="M115 150l-7 7h-14v-14h14z" stroke="none" fill="#ddd4d0" />
<g stroke="#2a5e6f" stroke-width="3">
<path d="M115 150l-7 7h-14v-14h14z" />
<text x="90" y="150" fill="black" stroke-width="0" text-anchor="end" dy="3.85">pcie_clkin</text>
<path d="M115 220l-7 7h-14v-14h14z" stroke="none" fill="#ddd4d0" />
</g>
<g>
<path d="M115 220l-7 7h-14v-14h14z" />
<text x="90" y="220" fill="black" stroke-width="0" text-anchor="end" dy="3.85">pcie_reset</text>
<path d="M172 112h226l3 1l2 1l1 2l1 3v62l-1 3l-1 2l-2 1l-3 1h-226l-3 -1l-2 -1l-1 -2l-1 -3v-62l1 -3l1 -2l2 -1z" stroke="none" fill="#edf6fe" />
<text x="285" y="110" fill="black" stroke-width="0" text-anchor="middle">util_ds_buf</text>
<text x="285" y="190" fill="#41619f" stroke-width="0" text-anchor="middle" dy="7.7">Utility Buffer</text>
<path d="M155 141h10v18h-10z" stroke="none" fill="#edf6fe" />
</g>
<g stroke="#41619f" stroke-width="3">
<path d="M174 145v10" />
<path d="M169 150h10" />
</g>
<g stroke="#41619f">
<path d="M167 143h14v14h-14z" />
<text x="182" y="150" fill="black" stroke-width="0" font-size="10" dy="3.25">CLK_IN_D</text>
</g>
<g stroke="black" stroke-width="5">
<path d="M415 140h-10" />
<text x="403" y="140" fill="black" stroke-width="0" font-size="10" text-anchor="end" dy="3.25">IBUF_OUT[0:0]</text>
<path d="M415 160h-10" />
<text x="403" y="160" fill="black" stroke-width="0" font-size="10" text-anchor="end" dy="3.25">IBUF_DS_ODIV2[0:0]</text>
</g>
<g stroke="#41619f">
<path d="M172 112h226" />
<path d="M398,112 A6.83537,6.83537 1.61957 0,1 405,119" />
<path d="M405 119v62" />
<path d="M405,181 A6.83537,6.83537 1.61957 0,1 398,188" />
<path d="M398 188h-226" />
<path d="M172,188 A6.83537,6.83537 1.61957 0,1 165,181" />
<path d="M165 181v-62" />
<path d="M165,119 A6.83537,6.83537 1.61957 0,1 172,112" />
<path d="M472 112h246l3 1l2 1l1 2l1 3v182l-1 3l-1 2l-2 1l-3 1h-246l-3 -1l-2 -1l-1 -2l-1 -3v-182l1 -3l1 -2l2 -1z" stroke="none" fill="#edf6fe" />
<text x="595" y="110" fill="black" stroke-width="0" text-anchor="middle">xdma_0</text>
<text x="595" y="310" fill="#41619f" stroke-width="0" text-anchor="middle" dy="7.7">DMA/Bridge Subsystem for PCI Express (PCIe)</text>
<path d="M725 131h10v18h-10z" stroke="none" fill="#edf6fe" />
</g>
<g stroke="#41619f" stroke-width="3">
<path d="M715 135v10" />
<path d="M710 140h10" />
</g>
<g stroke="#41619f">
<path d="M708 133h14v14h-14z" />
<text x="708" y="140" fill="black" stroke-width="0" font-size="10" text-anchor="end" dy="3.25">M_AXI</text>
<path d="M455 171h10v18h-10z" stroke="none" fill="#edf6fe" />
</g>
<g stroke="#41619f" stroke-width="3">
<path d="M474 175v10" />
<path d="M469 180h10" />
</g>
<g stroke="#41619f">
<path d="M467 173h14v14h-14z" />
<text x="482" y="180" fill="black" stroke-width="0" font-size="10" dy="3.25">pcie_cfg_mgmt</text>
<path d="M725 151h10v18h-10z" stroke="none" fill="#edf6fe" />
</g>
<g stroke="#41619f" stroke-width="3">
<path d="M715 155v10" />
<path d="M710 160h10" />
</g>
<g stroke="#41619f">
<path d="M708 153h14v14h-14z" />
<text x="708" y="160" fill="black" stroke-width="0" font-size="10" text-anchor="end" dy="3.25">pcie_mgt</text>
</g>
<g stroke="black" stroke-width="3">
<path d="M455 200h10" />
<text x="467" y="200" fill="black" stroke-width="0" font-size="10" dy="3.25">sys_clk</text>
<circle cx="462" cy="220" r="3" />
<path d="M455 220h4" />
<text x="467" y="220" fill="black" stroke-width="0" font-size="10" dy="3.25">sys_rst_n</text>
<path d="M735 180h-10" />
<text x="723" y="180" fill="black" stroke-width="0" font-size="10" text-anchor="end" dy="3.25">user_lnk_up</text>
<path d="M735 200h-10" />
<text x="723" y="200" fill="black" stroke-width="0" font-size="10" text-anchor="end" dy="3.25">axi_aclk</text>
<circle cx="728" cy="220" r="3" />
<path d="M735 220h-4" />
<text x="723" y="220" fill="black" stroke-width="0" font-size="10" text-anchor="end" dy="3.25">axi_aresetn</text>
</g>
<g stroke="black" stroke-width="5">
<path d="M455 240h10" />
<text x="467" y="240" fill="black" stroke-width="0" font-size="10" dy="3.25">usr_irq_req[0:0]</text>
<path d="M735 240h-10" />
<text x="723" y="240" fill="black" stroke-width="0" font-size="10" text-anchor="end" dy="3.25">usr_irq_ack[0:0]</text>
</g>
<g stroke="black" stroke-width="3">
<path d="M735 260h-10" />
<text x="723" y="260" fill="black" stroke-width="0" font-size="10" text-anchor="end" dy="3.25">msi_enable</text>
</g>
<g stroke="black" stroke-width="5">
<path d="M735 280h-10" />
<text x="723" y="280" fill="black" stroke-width="0" font-size="10" text-anchor="end" dy="3.25">msi_vector_width[2:0]</text>
</g>
<g stroke="#41619f">
<path d="M472 112h246" />
<path d="M718,112 A6.83537,6.83537 1.61957 0,1 725,119" />
<path d="M725 119v182" />
<path d="M725,301 A6.83537,6.83537 1.61957 0,1 718,308" />
<path d="M718 308h-246" />
<path d="M472,308 A6.83537,6.83537 1.61957 0,1 465,301" />
<path d="M465 301v-182" />
<path d="M465,119 A6.83537,6.83537 1.61957 0,1 472,112" />
<path d="M852 32h126l3 1l2 1l1 2l1 3v82l-1 3l-1 2l-2 1l-3 1h-126l-3 -1l-2 -1l-1 -2l-1 -3v-82l1 -3l1 -2l2 -1z" stroke="none" fill="#edf6fe" />
<text x="915" y="30" fill="black" stroke-width="0" text-anchor="middle">system_ila_0</text>
<text x="915" y="130" fill="#41619f" stroke-width="0" text-anchor="middle" dy="7.7">System ILA</text>
<path d="M835 51h10v18h-10z" stroke="none" fill="#edf6fe" />
</g>
<g stroke="#41619f" stroke-width="3">
<path d="M854 55v10" />
<path d="M849 60h10" />
</g>
<g stroke="#41619f">
<path d="M847 53h14v14h-14z" />
<text x="862" y="60" fill="black" stroke-width="0" font-size="10" dy="3.25">SLOT_0_AXI</text>
</g>
<g stroke="black" stroke-width="3">
<path d="M835 80h10" />
<text x="847" y="80" fill="black" stroke-width="0" font-size="10" dy="3.25">clk</text>
<circle cx="842" cy="100" r="3" />
<path d="M835 100h4" />
<text x="847" y="100" fill="black" stroke-width="0" font-size="10" dy="3.25">resetn</text>
</g>
<g stroke="#41619f">
<path d="M852 32h126" />
<path d="M978,32 A6.83537,6.83537 1.61957 0,1 985,39" />
<path d="M985 39v82" />
<path d="M985,121 A6.83537,6.83537 1.61957 0,1 978,128" />
<path d="M978 128h-126" />
<path d="M852,128 A6.83537,6.83537 1.61957 0,1 845,121" />
<path d="M845 121v-82" />
<path d="M845,39 A6.83537,6.83537 1.61957 0,1 852,32" />
<path d="M812 192h206l3 1l2 1l1 2l1 3v82l-1 3l-1 2l-2 1l-3 1h-206l-3 -1l-2 -1l-1 -2l-1 -3v-82l1 -3l1 -2l2 -1z" stroke="none" fill="#edf6fe" />
<text x="915" y="190" fill="black" stroke-width="0" text-anchor="middle">axi_smc</text>
<text x="915" y="290" fill="#41619f" stroke-width="0" text-anchor="middle" dy="7.7">AXI SmartConnect</text>
<path d="M795 211h10v18h-10z" stroke="none" fill="#edf6fe" />
</g>
<g stroke="#41619f" stroke-width="3">
<path d="M814 215v10" />
<path d="M809 220h10" />
</g>
<g stroke="#41619f">
<path d="M807 213h14v14h-14z" />
<text x="822" y="220" fill="black" stroke-width="0" font-size="10" dy="3.25">S00_AXI</text>
<path d="M1025 231h10v18h-10z" stroke="none" fill="#edf6fe" />
</g>
<g stroke="#41619f" stroke-width="3">
<path d="M1015 235v10" />
<path d="M1010 240h10" />
</g>
<g stroke="#41619f">
<path d="M1008 233h14v14h-14z" />
<text x="1008" y="240" fill="black" stroke-width="0" font-size="10" text-anchor="end" dy="3.25">M00_AXI</text>
</g>
<g stroke="black" stroke-width="3">
<path d="M795 240h10" />
<text x="807" y="240" fill="black" stroke-width="0" font-size="10" dy="3.25">aclk</text>
<circle cx="802" cy="260" r="3" />
<path d="M795 260h4" />
<text x="807" y="260" fill="black" stroke-width="0" font-size="10" dy="3.25">aresetn</text>
</g>
<g stroke="#41619f">
<path d="M812 192h206" />
<path d="M1018,192 A6.83537,6.83537 1.61957 0,1 1025,199" />
<path d="M1025 199v82" />
<path d="M1025,281 A6.83537,6.83537 1.61957 0,1 1018,288" />
<path d="M1018 288h-206" />
<path d="M812,288 A6.83537,6.83537 1.61957 0,1 805,281" />
<path d="M805 281v-82" />
<path d="M805,199 A6.83537,6.83537 1.61957 0,1 812,192" />
<path d="M1102 212h206l3 1l2 1l1 2l1 3v82l-1 3l-1 2l-2 1l-3 1h-206l-3 -1l-2 -1l-1 -2l-1 -3v-82l1 -3l1 -2l2 -1z" stroke="none" fill="#edf6fe" />
<text x="1205" y="210" fill="black" stroke-width="0" text-anchor="middle">axi_bram_ctrl_0</text>
<text x="1205" y="310" fill="#41619f" stroke-width="0" text-anchor="middle" dy="7.7">AXI BRAM Controller</text>
<path d="M1085 231h10v18h-10z" stroke="none" fill="#edf6fe" />
</g>
<g stroke="#41619f" stroke-width="3">
<path d="M1104 235v10" />
<path d="M1099 240h10" />
</g>
<g stroke="#41619f">
<path d="M1097 233h14v14h-14z" />
<text x="1112" y="240" fill="black" stroke-width="0" font-size="10" dy="3.25">S_AXI</text>
<path d="M1315 241h10v18h-10z" stroke="none" fill="#edf6fe" />
</g>
<g stroke="#41619f" stroke-width="3">
<path d="M1305 245v10" />
<path d="M1300 250h10" />
</g>
<g stroke="#41619f">
<path d="M1298 243h14v14h-14z" />
<text x="1298" y="250" fill="black" stroke-width="0" font-size="10" text-anchor="end" dy="3.25">BRAM_PORTA</text>
<path d="M1315 261h10v18h-10z" stroke="none" fill="#edf6fe" />
</g>
<g stroke="#41619f" stroke-width="3">
<path d="M1305 265v10" />
<path d="M1300 270h10" />
</g>
<g stroke="#41619f">
<path d="M1298 263h14v14h-14z" />
<text x="1298" y="270" fill="black" stroke-width="0" font-size="10" text-anchor="end" dy="3.25">BRAM_PORTB</text>
</g>
<g stroke="black" stroke-width="3">
<path d="M1085 260h10" />
<text x="1097" y="260" fill="black" stroke-width="0" font-size="10" dy="3.25">s_axi_aclk</text>
<circle cx="1092" cy="280" r="3" />
<path d="M1085 280h4" />
<text x="1097" y="280" fill="black" stroke-width="0" font-size="10" dy="3.25">s_axi_aresetn</text>
</g>
<g stroke="#41619f">
<path d="M1102 212h206" />
<path d="M1308,212 A6.83537,6.83537 1.61957 0,1 1315,219" />
<path d="M1315 219v82" />
<path d="M1315,301 A6.83537,6.83537 1.61957 0,1 1308,308" />
<path d="M1308 308h-206" />
<path d="M1102,308 A6.83537,6.83537 1.61957 0,1 1095,301" />
<path d="M1095 301v-82" />
<path d="M1095,219 A6.83537,6.83537 1.61957 0,1 1102,212" />
<path d="M1442 32h86l3 1l2 1l1 2l1 3v42l-1 3l-1 2l-2 1l-3 1h-86l-3 -1l-2 -1l-1 -2l-1 -3v-42l1 -3l1 -2l2 -1z" stroke="none" fill="#edf6fe" />
<text x="1485" y="30" fill="black" stroke-width="0" text-anchor="middle">xlconstant_0</text>
<text x="1485" y="90" fill="#41619f" stroke-width="0" text-anchor="middle" dy="7.7">Constant</text>
</g>
<g stroke="black" stroke-width="5">
<path d="M1545 60h-10" />
<text x="1533" y="60" fill="black" stroke-width="0" font-size="10" text-anchor="end" dy="3.25">dout[0:0]</text>
</g>
<g stroke="#41619f">
<path d="M1442 32h86" />
<path d="M1528,32 A6.83537,6.83537 1.61957 0,1 1535,39" />
<path d="M1535 39v42" />
<path d="M1535,81 A6.83537,6.83537 1.61957 0,1 1528,88" />
<path d="M1528 88h-86" />
<path d="M1442,88 A6.83537,6.83537 1.61957 0,1 1435,81" />
<path d="M1435 81v-42" />
<path d="M1435,39 A6.83537,6.83537 1.61957 0,1 1442,32" />
<path d="M1392 222h186l3 1l2 1l1 2l1 3v62l-1 3l-1 2l-2 1l-3 1h-186l-3 -1l-2 -1l-1 -2l-1 -3v-62l1 -3l1 -2l2 -1z" stroke="none" fill="#edf6fe" />
<text x="1485" y="220" fill="black" stroke-width="0" text-anchor="middle">axi_bram_ctrl_0_bram</text>
<text x="1485" y="300" fill="#41619f" stroke-width="0" text-anchor="middle" dy="7.7">Block Memory Generator</text>
<path d="M1375 241h10v18h-10z" stroke="none" fill="#edf6fe" />
</g>
<g stroke="#41619f" stroke-width="3">
<path d="M1394 245v10" />
<path d="M1389 250h10" />
</g>
<g stroke="#41619f">
<path d="M1387 243h14v14h-14z" />
<text x="1402" y="250" fill="black" stroke-width="0" font-size="10" dy="3.25">BRAM_PORTA</text>
<path d="M1375 261h10v18h-10z" stroke="none" fill="#edf6fe" />
</g>
<g stroke="#41619f" stroke-width="3">
<path d="M1394 265v10" />
<path d="M1389 270h10" />
</g>
<g stroke="#41619f">
<path d="M1387 263h14v14h-14z" />
<text x="1402" y="270" fill="black" stroke-width="0" font-size="10" dy="3.25">BRAM_PORTB</text>
</g>
<g stroke="black" stroke-width="3">
<path d="M1595 250h-10" />
<text x="1583" y="250" fill="black" stroke-width="0" font-size="10" text-anchor="end" dy="3.25">rsta_busy</text>
<path d="M1595 270h-10" />
<text x="1583" y="270" fill="black" stroke-width="0" font-size="10" text-anchor="end" dy="3.25">rstb_busy</text>
</g>
<g stroke="#41619f">
<path d="M1392 222h186" />
<path d="M1578,222 A6.83537,6.83537 1.61957 0,1 1585,229" />
<path d="M1585 229v62" />
<path d="M1585,291 A6.83537,6.83537 1.61957 0,1 1578,298" />
<path d="M1578 298h-186" />
<path d="M1392,298 A6.83537,6.83537 1.61957 0,1 1385,291" />
<path d="M1385 291v-62" />
<path d="M1385,229 A6.83537,6.83537 1.61957 0,1 1392,222" />
<path d="M1635 60v-7h14l7 7l-7 7h-14z" stroke="none" fill="#ddd4d0" />
</g>
<g stroke-width="3">
<path d="M1635 60v-7h14l7 7l-7 7h-14z" />
<text x="1660" y="60" fill="black" stroke-width="0" dy="3.85">pcie_clkreq[0:0]</text>
<path d="M1635 160v-7h14l7 7l-7 7h-14z" stroke="none" fill="#ddd4d0" />
</g>
<g stroke="#2a5e6f" stroke-width="3">
<path d="M1635 160v-7h14l7 7l-7 7h-14z" />
<text x="1660" y="160" fill="black" stroke-width="0" dy="3.85">pcie_mgt</text>
</g>
<g stroke="#41619f" stroke-width="4">
<path d="M1325 250h50" />
<path d="M1325 270h50" />
<path d="M1035 240h50" />
<path d="M115 150h40" />
</g>
<g>
<path d="M115 220h340" />
</g>
<g stroke-width="3">
<path d="M415 140h20v60h20" />
</g>
<g stroke="#41619f" stroke-width="4">
<path d="M835 60h-70v160h30" />
<path d="M735 140h30" />
<path d="M761 136h8v8h-8z" stroke="none" fill="#41619f" />
</g>
<g>
<path d="M835 80h-60v240h280v-60h30" />
<path d="M735 200h40" />
<path d="M775 240h20" />
<path d="M773 198h5v5h-5z" stroke="none" fill="#102235" />
<path d="M773 238h5v5h-5z" stroke="none" fill="#102235" />
<path d="M835 100h-80v230h310v-50h20" />
<path d="M735 220h20" />
<path d="M755 260h40" />
<path d="M753 218h5v5h-5z" stroke="none" fill="#102235" />
<path d="M753 258h5v5h-5z" stroke="none" fill="#102235" />
</g>
<g stroke="#41619f" stroke-width="4">
<path d="M735 160h900" />
</g>
<g stroke-width="3">
<path d="M1545 60h90" />
</g>
</g>
</svg>
